# xmcd
#
# Track frame offsets: 
#        150
#        16067
#        31465
#        47267
#        62945
#        78830
#        91205
#        111037
#        131027
#        146452
#        167080
#
# Disc length: 2413 seconds
#
# Revision: 3
# Processed by: cddbd v1.5.2PL0 Copyright (c) Steve Scherf et al.
# Submitted via: ExactAudioCopyFreeDBPlugin 1.0
#
DISCID=83096b0b
DTITLE=Magic Slim and The Teardrops - Gravel Road
DYEAR=1990
DGENRE=Blues
TTITLE0=Cold Women With Warm Hearts
TTITLE1=Gravel Road
TTITLE2=Hard To Handle
TTITLE3=Bad Luck Is Fallin'
TTITLE4=Pretty Girls Everywhere
TTITLE5=Further On Up The Road
TTITLE6=Mustang Sally
TTITLE7=Prisoner Of Love
TTITLE8=Before You Accuse Me
TTITLE9=Please Don't Waste My time
TTITLE10=Slim's Hideaway
EXTD=
EXTT0=
EXTT1=
EXTT2=
EXTT3=
EXTT4=
EXTT5=
EXTT6=
EXTT7=
EXTT8=
EXTT9=
EXTT10=
PLAYORDER=
